<svg xmlns="http://www.w3.org/2000/svg" xmlns:xlink="http://www.w3.org/1999/xlink" width="250" zoomAndPan="magnify"
     viewBox="0 0 275.25 80.249996" height="100" preserveAspectRatio="xMidYMid meet" version="1.0">
    <defs>
        <g/>
        <clipPath id="adbb3c4f64">
            <path d="M 0.902344 0 L 273.605469 0 L 273.605469 79.507812 L 0.902344 79.507812 Z M 0.902344 0 "
                  clip-rule="nonzero"/>
        </clipPath>
    </defs>
    <g clip-path="url(#adbb3c4f64)">
        <path fill="#ffffff" d="M 0.902344 0 L 273.605469 0 L 273.605469 79.507812 L 0.902344 79.507812 Z M 0.902344 0 "
              fill-opacity="1" fill-rule="nonzero"/>
    </g>
    <path fill="#224e87"
          d="M 19.804688 49.707031 C 19.804688 49.707031 20.445312 39.972656 16.804688 32.152344 L 39.910156 32.183594 C 42.253906 50.957031 34.140625 64.738281 18.261719 74.8125 C 37.296875 66.472656 46.144531 51.433594 43.273438 28.695312 L 11.164062 28.695312 L 14.347656 34.246094 L 3.34375 34.246094 C 3.34375 34.246094 13.257812 43.523438 15.714844 48.980469 C 15.714844 48.980469 14.710938 42.429688 11.074219 38.335938 L 16.347656 38.335938 C 16.347656 38.335938 19.167969 44.519531 19.804688 49.707031 Z M 19.804688 49.707031 "
          fill-opacity="1" fill-rule="nonzero"/>
    <path fill="#224e87"
          d="M 29.1875 39.9375 L 28.875 39.9375 C 28.652344 39.9375 28.476562 39.960938 28.335938 40.007812 C 28.195312 40.054688 28.089844 40.113281 28.019531 40.183594 C 27.933594 40.269531 27.875 40.382812 27.851562 40.527344 C 27.824219 40.671875 27.808594 40.804688 27.808594 40.921875 C 27.808594 41.070312 27.832031 41.191406 27.871094 41.289062 C 27.914062 41.386719 27.96875 41.46875 28.03125 41.53125 C 28.09375 41.59375 28.160156 41.640625 28.230469 41.671875 C 28.300781 41.703125 28.363281 41.726562 28.417969 41.742188 L 29.191406 41.988281 L 29.191406 39.9375 Z M 29.1875 39.9375 "
          fill-opacity="1" fill-rule="nonzero"/>
    <path fill="#224e87"
          d="M 30.851562 45.636719 C 31.039062 45.609375 31.183594 45.554688 31.285156 45.46875 C 31.355469 45.40625 31.414062 45.316406 31.460938 45.203125 C 31.507812 45.089844 31.53125 44.953125 31.53125 44.789062 C 31.53125 44.5625 31.476562 44.347656 31.367188 44.148438 C 31.257812 43.953125 31.03125 43.796875 30.6875 43.6875 L 30.101562 43.5 L 30.101562 45.679688 L 30.382812 45.679688 C 30.507812 45.679688 30.664062 45.664062 30.851562 45.636719 Z M 30.851562 45.636719 "
          fill-opacity="1" fill-rule="nonzero"/>
    <path fill="#224e87"
          d="M 36.453125 42.792969 C 36.453125 39.027344 33.398438 35.972656 29.628906 35.972656 C 25.863281 35.972656 22.808594 39.027344 22.808594 42.792969 C 22.808594 46.5625 25.863281 49.613281 29.628906 49.613281 C 33.398438 49.613281 36.453125 46.5625 36.453125 42.792969 Z M 26.519531 46.90625 L 26.519531 45.679688 L 29.1875 45.679688 L 29.1875 43.207031 L 27.621094 42.703125 C 27.398438 42.632812 27.199219 42.550781 27.011719 42.453125 C 26.824219 42.355469 26.652344 42.175781 26.496094 41.917969 C 26.371094 41.707031 26.292969 41.492188 26.261719 41.269531 C 26.230469 41.046875 26.214844 40.839844 26.214844 40.652344 C 26.214844 40.410156 26.234375 40.167969 26.277344 39.921875 C 26.320312 39.671875 26.425781 39.453125 26.601562 39.257812 C 26.710938 39.132812 26.832031 39.03125 26.96875 38.960938 C 27.105469 38.886719 27.246094 38.832031 27.390625 38.796875 C 27.535156 38.761719 27.679688 38.738281 27.824219 38.726562 C 27.96875 38.714844 28.105469 38.707031 28.238281 38.707031 L 29.1875 38.707031 L 29.1875 37.910156 L 30.101562 37.910156 L 30.101562 38.707031 L 32.609375 38.707031 L 32.609375 39.9375 L 30.101562 39.9375 L 30.101562 42.28125 L 31.484375 42.726562 C 31.695312 42.796875 31.914062 42.878906 32.136719 42.972656 C 32.359375 43.066406 32.566406 43.242188 32.761719 43.5 C 32.933594 43.726562 33.035156 43.953125 33.070312 44.171875 C 33.105469 44.394531 33.125 44.640625 33.125 44.90625 C 33.125 45.054688 33.121094 45.203125 33.113281 45.351562 C 33.105469 45.5 33.082031 45.644531 33.042969 45.785156 C 33.003906 45.921875 32.945312 46.058594 32.875 46.1875 C 32.800781 46.316406 32.695312 46.429688 32.5625 46.53125 C 32.445312 46.625 32.316406 46.699219 32.175781 46.75 C 32.035156 46.800781 31.890625 46.835938 31.742188 46.863281 C 31.59375 46.886719 31.445312 46.898438 31.296875 46.902344 C 31.148438 46.90625 31.007812 46.90625 30.875 46.90625 L 30.101562 46.90625 L 30.101562 47.703125 L 29.1875 47.703125 L 29.1875 46.90625 Z M 26.519531 46.90625 "
          fill-opacity="1" fill-rule="nonzero"/>
    <path fill="#224e87"
          d="M 35.164062 7.90625 L 36.292969 17.300781 L 21.355469 10.949219 C 21.433594 11.128906 24.699219 18.535156 27.113281 26.164062 L 30.550781 26.164062 C 30.382812 24.433594 30.058594 22.664062 29.492188 20.984375 L 36.652344 24.03125 C 36.652344 24.03125 36.675781 24.839844 36.65625 26.164062 L 39.898438 26.164062 C 40.546875 22.90625 40.949219 19.382812 40.832031 15.867188 L 72.175781 29.246094 C 65.421875 53.105469 49.78125 66.882812 27.273438 72.878906 C 24.378906 73.648438 21.375 74.292969 18.257812 74.808594 C 20.402344 74.785156 22.5 74.6875 24.546875 74.511719 C 51.734375 72.207031 70.199219 56.785156 78.746094 26.441406 Z M 35.164062 7.90625 "
          fill-opacity="1" fill-rule="nonzero"/>
    <path fill="#224e87"
          d="M 52.730469 33.441406 C 52.4375 33.316406 52.175781 33.246094 51.960938 33.226562 C 51.742188 33.207031 51.566406 33.230469 51.429688 33.285156 C 51.261719 33.351562 51.121094 33.476562 51 33.65625 C 50.878906 33.835938 50.789062 34.007812 50.71875 34.167969 C 50.632812 34.367188 50.59375 34.550781 50.59375 34.707031 C 50.597656 34.863281 50.621094 35.003906 50.671875 35.125 C 50.71875 35.246094 50.78125 35.347656 50.859375 35.433594 C 50.9375 35.515625 51.007812 35.582031 51.074219 35.636719 L 51.984375 36.417969 L 53.164062 33.625 Z M 52.730469 33.441406 "
          fill-opacity="1" fill-rule="nonzero"/>
    <path fill="#224e87"
          d="M 51.480469 42.132812 C 51.648438 42.207031 51.871094 42.277344 52.140625 42.347656 C 52.410156 42.417969 52.640625 42.425781 52.828125 42.367188 C 52.957031 42.324219 53.089844 42.238281 53.21875 42.109375 C 53.347656 41.980469 53.457031 41.808594 53.550781 41.582031 C 53.683594 41.273438 53.730469 40.957031 53.695312 40.617188 C 53.660156 40.285156 53.441406 39.941406 53.039062 39.59375 L 52.351562 39 L 51.097656 41.96875 Z M 51.480469 42.132812 "
          fill-opacity="1" fill-rule="nonzero"/>
    <path fill="#224e87"
          d="M 46.105469 41.824219 C 45.992188 43.070312 45.832031 44.289062 45.628906 45.480469 C 46.378906 46.117188 47.238281 46.652344 48.191406 47.058594 C 53.304688 49.234375 59.210938 46.839844 61.375 41.707031 C 63.542969 36.574219 61.15625 30.652344 56.039062 28.476562 C 52.566406 26.996094 48.730469 27.632812 45.945312 29.796875 C 46.328125 33.332031 46.425781 36.703125 46.246094 39.90625 L 49.859375 41.445312 L 51.28125 38.074219 L 49.4375 36.484375 C 49.183594 36.261719 48.953125 36.03125 48.757812 35.789062 C 48.558594 35.550781 48.425781 35.207031 48.363281 34.765625 C 48.316406 34.40625 48.332031 34.066406 48.421875 33.742188 C 48.503906 33.425781 48.601562 33.136719 48.710938 32.878906 C 48.851562 32.550781 49.019531 32.230469 49.21875 31.921875 C 49.417969 31.609375 49.691406 31.371094 50.039062 31.207031 C 50.257812 31.097656 50.480469 31.035156 50.710938 31.011719 C 50.9375 30.988281 51.160156 30.996094 51.378906 31.03125 C 51.59375 31.066406 51.804688 31.117188 52.003906 31.183594 C 52.210938 31.25 52.398438 31.324219 52.582031 31.402344 L 53.867188 31.949219 L 54.328125 30.863281 L 55.566406 31.390625 L 55.109375 32.476562 L 58.511719 33.921875 L 57.804688 35.597656 L 54.402344 34.152344 L 53.054688 37.34375 L 54.671875 38.746094 C 54.917969 38.964844 55.167969 39.203125 55.414062 39.457031 C 55.664062 39.714844 55.84375 40.074219 55.960938 40.539062 C 56.066406 40.945312 56.074219 41.3125 55.996094 41.636719 C 55.917969 41.960938 55.800781 42.300781 55.644531 42.664062 C 55.5625 42.863281 55.472656 43.066406 55.375 43.261719 C 55.277344 43.460938 55.164062 43.640625 55.027344 43.8125 C 54.894531 43.980469 54.742188 44.132812 54.566406 44.265625 C 54.390625 44.394531 54.183594 44.496094 53.945312 44.554688 C 53.730469 44.613281 53.515625 44.640625 53.296875 44.628906 C 53.078125 44.613281 52.859375 44.582031 52.644531 44.53125 C 52.429688 44.472656 52.21875 44.410156 52.019531 44.328125 C 51.8125 44.246094 51.621094 44.167969 51.441406 44.09375 L 50.390625 43.648438 L 49.933594 44.734375 L 48.691406 44.203125 L 49.148438 43.117188 Z M 46.105469 41.824219 "
          fill-opacity="1" fill-rule="nonzero"/>
    <g fill="#224e87" fill-opacity="1">
        <g transform="translate(81.270687, 47.61021)">
            <g>
                <path d="M 7.65625 -4.34375 L 15.03125 -4.34375 L 15.03125 0 L 2.03125 0 L 2.03125 -23.078125 L 7.65625 -23.078125 Z M 7.65625 -4.34375 "/>
            </g>
        </g>
    </g>
    <g fill="#224e87" fill-opacity="1">
        <g transform="translate(96.954547, 47.61021)">
            <g>
                <path d="M 12.953125 0.234375 C 10.785156 0.234375 8.796875 -0.269531 6.984375 -1.28125 C 5.179688 -2.289062 3.742188 -3.695312 2.671875 -5.5 C 1.609375 -7.3125 1.078125 -9.347656 1.078125 -11.609375 C 1.078125 -13.859375 1.609375 -15.878906 2.671875 -17.671875 C 3.742188 -19.472656 5.179688 -20.878906 6.984375 -21.890625 C 8.796875 -22.898438 10.785156 -23.40625 12.953125 -23.40625 C 15.117188 -23.40625 17.101562 -22.898438 18.90625 -21.890625 C 20.71875 -20.878906 22.144531 -19.472656 23.1875 -17.671875 C 24.226562 -15.878906 24.75 -13.859375 24.75 -11.609375 C 24.75 -9.347656 24.222656 -7.3125 23.171875 -5.5 C 22.117188 -3.695312 20.691406 -2.289062 18.890625 -1.28125 C 17.097656 -0.269531 15.117188 0.234375 12.953125 0.234375 Z M 12.953125 -4.890625 C 14.796875 -4.890625 16.269531 -5.503906 17.375 -6.734375 C 18.476562 -7.960938 19.03125 -9.585938 19.03125 -11.609375 C 19.03125 -13.640625 18.476562 -15.265625 17.375 -16.484375 C 16.269531 -17.703125 14.796875 -18.3125 12.953125 -18.3125 C 11.085938 -18.3125 9.601562 -17.707031 8.5 -16.5 C 7.394531 -15.289062 6.84375 -13.660156 6.84375 -11.609375 C 6.84375 -9.566406 7.394531 -7.9375 8.5 -6.71875 C 9.601562 -5.5 11.085938 -4.890625 12.953125 -4.890625 Z M 12.953125 -4.890625 "/>
            </g>
        </g>
    </g>
    <g fill="#224e87" fill-opacity="1">
        <g transform="translate(122.79839, 47.61021)">
            <g>
                <path d="M 16.40625 -4.078125 L 7.796875 -4.078125 L 6.40625 0 L 0.53125 0 L 8.875 -23.078125 L 15.390625 -23.078125 L 23.734375 0 L 17.78125 0 Z M 14.953125 -8.421875 L 12.09375 -16.859375 L 9.265625 -8.421875 Z M 14.953125 -8.421875 "/>
            </g>
        </g>
    </g>
    <g fill="#224e87" fill-opacity="1">
        <g transform="translate(147.031108, 47.61021)">
            <g>
                <path d="M 22.6875 0 L 17.0625 0 L 7.65625 -14.234375 L 7.65625 0 L 2.03125 0 L 2.03125 -23.078125 L 7.65625 -23.078125 L 17.0625 -8.78125 L 17.0625 -23.078125 L 22.6875 -23.078125 Z M 22.6875 0 "/>
            </g>
        </g>
    </g>
    <g fill="#224e87" fill-opacity="1">
        <g transform="translate(82.210936, 61.412153)">
            <g>
                <path d="M 8.3125 -11.453125 L 8.3125 -10.234375 L 5.1875 -10.234375 L 5.1875 0 L 3.703125 0 L 3.703125 -10.234375 L 0.5625 -10.234375 L 0.5625 -11.453125 Z M 8.3125 -11.453125 "/>
            </g>
        </g>
    </g>
    <g fill="#224e87" fill-opacity="1">
        <g transform="translate(100.322526, 61.412153)">
            <g>
                <path d="M 7.296875 0 L 4.5625 -4.6875 L 2.765625 -4.6875 L 2.765625 0 L 1.265625 0 L 1.265625 -11.453125 L 4.96875 -11.453125 C 5.832031 -11.453125 6.5625 -11.300781 7.15625 -11 C 7.75 -10.707031 8.191406 -10.3125 8.484375 -9.8125 C 8.785156 -9.3125 8.9375 -8.738281 8.9375 -8.09375 C 8.9375 -7.300781 8.707031 -6.601562 8.25 -6 C 7.800781 -5.394531 7.125 -4.992188 6.21875 -4.796875 L 9.09375 0 Z M 2.765625 -5.890625 L 4.96875 -5.890625 C 5.78125 -5.890625 6.382812 -6.085938 6.78125 -6.484375 C 7.1875 -6.878906 7.390625 -7.414062 7.390625 -8.09375 C 7.390625 -8.769531 7.191406 -9.289062 6.796875 -9.65625 C 6.398438 -10.03125 5.789062 -10.21875 4.96875 -10.21875 L 2.765625 -10.21875 Z M 2.765625 -5.890625 "/>
            </g>
        </g>
    </g>
    <g fill="#224e87" fill-opacity="1">
        <g transform="translate(119.534823, 61.412153)">
            <g>
                <path d="M 8.03125 -2.546875 L 3.046875 -2.546875 L 2.125 0 L 0.546875 0 L 4.6875 -11.390625 L 6.40625 -11.390625 L 10.53125 0 L 8.953125 0 Z M 7.609375 -3.765625 L 5.546875 -9.546875 L 3.46875 -3.765625 Z M 7.609375 -3.765625 "/>
            </g>
        </g>
    </g>
    <g fill="#224e87" fill-opacity="1">
        <g transform="translate(139.831382, 61.412153)">
            <g>
                <path d="M 0.703125 -5.734375 C 0.703125 -6.847656 0.953125 -7.851562 1.453125 -8.75 C 1.960938 -9.644531 2.648438 -10.34375 3.515625 -10.84375 C 4.390625 -11.351562 5.359375 -11.609375 6.421875 -11.609375 C 7.671875 -11.609375 8.757812 -11.304688 9.6875 -10.703125 C 10.625 -10.097656 11.304688 -9.242188 11.734375 -8.140625 L 9.9375 -8.140625 C 9.625 -8.828125 9.164062 -9.359375 8.5625 -9.734375 C 7.96875 -10.109375 7.253906 -10.296875 6.421875 -10.296875 C 5.628906 -10.296875 4.914062 -10.109375 4.28125 -9.734375 C 3.644531 -9.359375 3.144531 -8.828125 2.78125 -8.140625 C 2.414062 -7.460938 2.234375 -6.660156 2.234375 -5.734375 C 2.234375 -4.828125 2.414062 -4.03125 2.78125 -3.34375 C 3.144531 -2.65625 3.644531 -2.125 4.28125 -1.75 C 4.914062 -1.382812 5.628906 -1.203125 6.421875 -1.203125 C 7.253906 -1.203125 7.96875 -1.382812 8.5625 -1.75 C 9.164062 -2.113281 9.625 -2.644531 9.9375 -3.34375 L 11.734375 -3.34375 C 11.304688 -2.238281 10.625 -1.390625 9.6875 -0.796875 C 8.757812 -0.203125 7.671875 0.09375 6.421875 0.09375 C 5.359375 0.09375 4.390625 -0.148438 3.515625 -0.640625 C 2.648438 -1.140625 1.960938 -1.832031 1.453125 -2.71875 C 0.953125 -3.613281 0.703125 -4.617188 0.703125 -5.734375 Z M 0.703125 -5.734375 "/>
            </g>
        </g>
    </g>
    <g fill="#224e87" fill-opacity="1">
        <g transform="translate(161.737936, 61.412153)">
            <g>
                <path d="M 7.484375 0 L 2.765625 -5.234375 L 2.765625 0 L 1.265625 0 L 1.265625 -11.453125 L 2.765625 -11.453125 L 2.765625 -6.140625 L 7.5 -11.453125 L 9.390625 -11.453125 L 4.1875 -5.71875 L 9.4375 0 Z M 7.484375 0 "/>
            </g>
        </g>
    </g>
</svg>